<svg width="300" height="300" viewBox="0 0 300 300" fill="none" xmlns="http://www.w3.org/2000/svg">
<path d="M234.514 221.008L234.508 221.146L235.786 221.212L235.792 221.073C236.465 208.123 236.554 195.87 236.125 184.237C235.695 172.604 234.747 161.593 233.343 151.124C231.94 140.648 230.083 130.718 227.839 121.256C225.594 111.791 222.96 102.794 220.006 94.1847L219.96 94.0542L218.748 94.4698L218.793 94.6003C221.737 103.175 224.36 112.135 226.594 121.558C228.83 130.983 230.679 140.869 232.075 151.29C233.471 161.721 234.417 172.694 234.845 184.287C235.274 195.88 235.184 208.094 234.514 221.007V221.008Z" fill="black"/>
<path d="M226.153 215.94C225.651 206.47 224.8 197.417 223.638 188.738C222.235 178.261 220.378 168.332 218.134 158.87C215.889 149.405 213.257 140.408 210.3 131.798L210.255 131.668L209.042 132.084L209.088 132.214C212.032 140.789 214.655 149.749 216.889 159.172C219.125 168.597 220.974 178.482 222.369 188.903C223.251 195.484 223.953 202.283 224.459 209.314C222.719 202.831 220.797 196.573 218.714 190.508L218.669 190.378L217.456 190.793L217.502 190.924C219.845 197.75 221.984 204.817 223.886 212.164C224.226 213.477 224.559 214.8 224.883 216.132C224.983 218.038 225.07 219.96 225.142 221.901C225.57 233.494 225.48 228.112 224.809 241.025L224.803 241.164L226.081 241.229L226.087 241.09C226.738 228.548 226.842 234.254 226.458 222.95C227.325 226.917 228.123 230.964 228.85 235.1L228.88 235.268L229.038 235.204C229.189 235.142 229.348 235.08 229.512 235.016C229.655 234.96 229.817 234.897 229.988 234.832L230.095 234.791L230.075 234.679C228.938 228.23 227.626 221.99 226.153 215.939V215.94Z" fill="black"/>
<path d="M241.289 160.348C242.684 149.927 244.533 140.042 246.769 130.617C249.005 121.195 251.626 112.234 254.57 103.659L254.616 103.528L253.403 103.113L253.358 103.243C250.402 111.852 247.769 120.85 245.524 130.315C243.28 139.777 241.423 149.706 240.02 160.183C238.618 170.652 237.67 181.663 237.239 193.296C236.813 204.803 236.896 213.396 237.548 226.19C237.331 229.534 237.157 210.056 237.031 213.507C236.868 217.896 236.78 218.855 236.769 223.423C237.088 224.101 237.413 224.776 237.743 225.448C237.846 225.655 237.948 225.863 238.051 226.071C238.028 220.597 238.115 218.772 238.309 213.556C238.43 210.26 238.594 229.887 238.798 226.689L238.855 226.686L238.849 226.547L238.83 226.196C239.342 218.324 240.1 214.265 241.079 206.954C242.475 196.531 244.324 186.647 246.56 177.222C248.795 167.8 251.417 158.839 254.361 150.264L254.406 150.134L253.194 149.718L253.148 149.849C250.192 158.457 247.56 167.455 245.315 176.92C243.071 186.382 241.214 196.312 239.811 206.788C239.276 210.778 238.807 214.847 238.409 218.998C238.168 210.117 238.211 201.575 238.515 193.347C238.944 181.754 239.889 170.781 241.286 160.35L241.289 160.348Z" fill="black"/>
<mask id="mask0_2776_47501" style="mask-type:luminance" maskUnits="userSpaceOnUse" x="18" y="41" width="242" height="241">
<path d="M138.823 281.899C205.354 281.899 259.288 228.05 259.288 161.624C259.288 95.198 205.354 41.349 138.823 41.349C72.2916 41.349 18.3574 95.198 18.3574 161.624C18.3574 228.05 72.2916 281.899 138.823 281.899Z" fill="white"/>
</mask>
<g mask="url(#mask0_2776_47501)">
<path fill-rule="evenodd" clip-rule="evenodd" d="M327.638 -129.475V373.93H-50.5117V-129.475H327.638Z" fill="#F7EBE4"/>
<path d="M254.364 150.263C251.42 158.838 248.797 167.797 246.562 177.221C244.327 186.645 242.478 196.531 241.082 206.952C240.103 214.264 239.345 221.843 238.833 229.713L238.852 230.065L238.858 230.203L238.801 230.206C238.597 233.404 238.433 236.651 238.312 239.948C237.883 251.541 237.973 263.755 238.642 276.668L238.649 276.806L237.371 276.871L237.364 276.733C236.692 263.783 236.603 251.53 237.032 239.897C237.16 236.446 237.332 233.05 237.55 229.707C236.897 216.912 236.815 204.8 237.24 193.293C237.67 181.66 238.62 170.649 240.022 160.18C241.425 149.703 243.282 139.774 245.526 130.312C247.771 120.847 250.405 111.85 253.359 103.24L253.405 103.11L254.617 103.525L254.572 103.656C251.628 112.231 249.005 121.191 246.771 130.614C244.535 140.039 242.686 149.924 241.29 160.345C239.894 170.777 238.948 181.749 238.52 193.342C238.215 201.571 238.173 210.111 238.413 218.994C238.812 214.842 239.28 210.773 239.815 206.784C241.218 196.307 243.075 186.378 245.319 176.916C247.564 167.451 250.198 158.454 253.153 149.844L253.198 149.714L254.411 150.129L254.365 150.26L254.364 150.263ZM223.885 212.164C221.984 204.817 219.844 197.75 217.501 190.924L217.455 190.793L218.668 190.378L218.713 190.508C220.796 196.572 222.718 202.832 224.458 209.313C223.952 202.281 223.25 195.484 222.368 188.903C220.973 178.481 219.124 168.597 216.888 159.172C214.652 149.75 212.031 140.789 209.087 132.214L209.042 132.083L210.254 131.668L210.3 131.798C213.256 140.406 215.888 149.405 218.133 158.87C220.377 168.332 222.234 178.261 223.637 188.738C224.799 197.417 225.65 206.47 226.152 215.94C227.625 221.991 228.937 228.231 230.074 234.68L230.094 234.792L229.987 234.833C229.816 234.898 229.654 234.961 229.511 235.017C229.347 235.081 229.188 235.143 229.037 235.205L228.879 235.269L228.849 235.101C228.124 230.965 227.324 226.916 226.457 222.951C226.841 234.255 226.739 246.144 226.086 258.687L226.08 258.825L224.802 258.76L224.808 258.621C225.479 245.708 225.567 233.495 225.141 221.902C225.069 219.961 224.983 218.039 224.882 216.133C224.558 214.801 224.224 213.478 223.885 212.165V212.164ZM220.006 94.186C222.962 102.794 225.594 111.793 227.839 121.257C230.083 130.719 231.94 140.649 233.344 151.126C234.746 161.595 235.694 172.606 236.125 184.239C236.555 195.872 236.467 208.124 235.793 221.074L235.786 221.213L234.508 221.148L234.515 221.009C235.186 208.096 235.274 195.882 234.846 184.289C234.417 172.696 233.472 161.724 232.075 151.292C230.68 140.871 228.831 130.986 226.595 121.561C224.359 112.139 221.737 103.178 218.793 94.6028L218.748 94.4723L219.961 94.0568L220.006 94.1873V94.186Z" fill="black"/>
<path fill-rule="evenodd" clip-rule="evenodd" d="M255.84 215.928C259.24 223.183 270.538 253.473 265.659 272.271C256.909 280.514 206.09 278.335 199.599 272.271C193.966 248.834 207.131 225.615 209.813 216.26C214.377 213.58 250.047 213.201 255.84 215.928Z" fill="white"/>
<path fill-rule="evenodd" clip-rule="evenodd" d="M257.921 275.615C244.654 278.753 220.062 278.033 207.218 275.198C206.271 252.409 210.047 230.655 212.949 215.348C221.659 213.773 243.742 213.577 252.732 215.107C255.43 231.297 258.556 255.626 257.921 275.615Z" fill="#FAF5F2"/>
<path d="M145.778 66.4382C165.746 55.8507 186.838 102.068 177.353 125.637C163.505 131.516 154.493 122.475 132.408 126.983C110.942 131.365 107.605 119.856 94.2536 123.361C91.3681 118.815 90.425 105.356 96.6375 99.5192C102.37 94.1355 107.503 93.2205 111.07 86.8273C104.925 95.5154 83.7161 98.1899 93.3171 123.511C92.2779 123.695 91.3041 123.923 90.4076 124.189C78.9096 98.4217 101.956 95.0319 109.201 85.47C112.368 81.2891 112.531 76.8139 114.732 72.557C121.597 59.2844 138.674 56.8523 145.777 66.4368L145.778 66.4382Z" fill="black"/>
<path fill-rule="evenodd" clip-rule="evenodd" d="M131.738 129.116C133.275 125.385 133.055 120.233 133.062 115.665H146.126C146.132 120.215 145.714 125.311 147.177 129.029C144.842 129.968 142.177 130.501 139.348 130.501C136.518 130.501 134.021 130.002 131.74 129.116H131.738Z" fill="#FA9D76"/>
<path fill-rule="evenodd" clip-rule="evenodd" d="M154.22 134.216C144.88 132.993 146.138 123.516 146.126 115.665H133.062C133.05 123.516 133.709 133.093 124.968 134.216C106.236 171.606 174.142 159.299 154.218 134.216H154.22Z" fill="#FA9D76"/>
<path d="M146.349 125.688C142.293 125.598 137.731 125.897 132.408 126.983C133.205 123.556 133.058 119.414 133.063 115.665H146.127C146.133 118.963 145.914 122.548 146.35 125.688H146.349Z" fill="#EB885E"/>
<path fill-rule="evenodd" clip-rule="evenodd" d="M327.638 226.709V373.93H-50.1758V226.92C-2.94172 213.119 64.3709 204.487 139.093 204.487C213.814 204.487 280.441 213.031 327.638 226.709Z" fill="white"/>
<path fill-rule="evenodd" clip-rule="evenodd" d="M161.957 99.5804C161.946 103.336 157.508 107.135 155.696 105.413C154.509 104.285 155.711 99.4152 156.901 97.3374C157.961 95.4874 161.966 95.514 161.956 99.5804H161.957Z" fill="#FA9D76"/>
<path fill-rule="evenodd" clip-rule="evenodd" d="M159.027 98.8983C158.223 98.8983 157.569 99.6842 157.569 100.654C157.569 100.851 157.596 101.039 157.645 101.216C157.763 101.155 157.888 101.121 158.018 101.121C158.538 101.121 158.982 101.657 159.147 102.403C159.896 102.329 160.486 101.574 160.486 100.654C160.486 99.6842 159.833 98.8983 159.027 98.8983Z" fill="#EB885E"/>
<path d="M157.724 102.176C157.703 102.365 157.532 102.503 157.343 102.483C157.153 102.461 157.016 102.291 157.037 102.102C157.173 100.903 157.516 99.8388 157.983 99.0477C158.481 98.2032 159.129 97.6558 159.835 97.5559C160.024 97.5293 160.199 97.6611 160.226 97.8489C160.252 98.0381 160.122 98.2126 159.932 98.2405C159.445 98.3098 158.97 98.7347 158.579 99.3966C158.161 100.107 157.85 101.075 157.726 102.178L157.724 102.176Z" fill="#EB885E"/>
<path d="M157.723 101.67C157.547 101.742 157.344 101.658 157.272 101.482C157.2 101.306 157.284 101.104 157.46 101.032C157.623 100.965 157.784 100.921 157.942 100.899C158.314 100.847 158.663 100.914 158.958 101.081C159.253 101.249 159.488 101.516 159.629 101.86C159.688 102.004 159.73 102.162 159.755 102.328C159.781 102.517 159.649 102.692 159.46 102.717C159.27 102.744 159.095 102.612 159.069 102.423C159.053 102.312 159.026 102.212 158.989 102.123C158.907 101.926 158.777 101.775 158.615 101.682C158.452 101.589 158.254 101.553 158.035 101.583C157.934 101.598 157.828 101.626 157.721 101.67H157.723Z" fill="#EB885E"/>
<path fill-rule="evenodd" clip-rule="evenodd" d="M145.999 82.4453C148.548 85.9136 152.164 88.668 156.128 90.0732C159.833 108.511 149.545 120.761 139.736 120.616C128.075 120.444 122.986 109.671 122.363 99.5059C122.229 97.3388 122.336 95.3543 122.465 92.9328C132.199 94.4712 138.122 82.2748 145.998 82.4453H145.999Z" fill="#FA9D76"/>
<path fill-rule="evenodd" clip-rule="evenodd" d="M145.999 82.4452C148.549 85.9136 152.164 88.668 156.129 90.0732C156.205 90.4501 156.269 90.8217 156.334 91.1933C156.323 91.1933 150.202 90.0638 146.653 86.481C137.579 88.4029 136.197 94.1222 122.404 94.1076C122.423 93.7266 122.444 93.3364 122.466 92.9341C131.526 94.3659 137.284 83.8997 144.39 82.5811H144.394C144.483 82.5638 144.569 82.5491 144.657 82.5358C144.707 82.5278 144.757 82.5211 144.808 82.5145C144.863 82.5065 144.919 82.4998 144.975 82.4945C145.056 82.4852 145.139 82.4772 145.222 82.4705C145.248 82.4679 145.276 82.4665 145.303 82.4639C145.408 82.4559 145.514 82.4506 145.619 82.4479H145.643C145.762 82.4439 145.881 82.4439 145.999 82.4466V82.4452Z" fill="#EB885E"/>
<path d="M135.302 109.635C135.146 109.523 135.111 109.307 135.222 109.152C135.334 108.996 135.55 108.961 135.706 109.072C136.919 109.939 138.239 110.349 139.537 110.348C140.887 110.346 142.219 109.901 143.383 109.065C143.538 108.953 143.754 108.989 143.866 109.144C143.978 109.298 143.942 109.514 143.788 109.626C142.506 110.546 141.036 111.036 139.539 111.038C138.097 111.039 136.636 110.589 135.303 109.635H135.302Z" fill="black"/>
<path fill-rule="evenodd" clip-rule="evenodd" d="M143.895 93.3336C143.987 91.9897 151.9 92.4999 151.807 93.8438C151.715 95.1864 143.803 94.6775 143.895 93.3336Z" fill="black"/>
<path fill-rule="evenodd" clip-rule="evenodd" d="M134.863 93.3336C134.771 91.9897 126.858 92.4999 126.951 93.8438C127.043 95.1864 134.955 94.6775 134.863 93.3336Z" fill="black"/>
<path fill-rule="evenodd" clip-rule="evenodd" d="M139.603 100.365C140.152 101.484 141.229 103.079 141.805 104.061C141.517 105.148 140.674 105.538 139.731 105.769C136.792 106.488 138.626 101.612 139.603 100.365Z" fill="#EB885E"/>
<path fill-rule="evenodd" clip-rule="evenodd" d="M130.39 102.02C131.625 102.323 132.415 103.432 132.152 104.498C131.89 105.563 130.676 106.183 129.441 105.88C128.206 105.578 127.416 104.468 127.679 103.403C127.94 102.337 129.154 101.718 130.39 102.02Z" fill="#FC6B58"/>
<path fill-rule="evenodd" clip-rule="evenodd" d="M117.39 99.5804C117.4 103.336 121.839 107.135 123.65 105.413C124.836 104.285 123.636 99.4152 122.446 97.3374C121.385 95.4874 117.38 95.514 117.391 99.5804H117.39Z" fill="#FA9D76"/>
<path fill-rule="evenodd" clip-rule="evenodd" d="M120.292 98.8983C121.097 98.8983 121.75 99.6842 121.75 100.654C121.75 100.851 121.724 101.039 121.674 101.216C121.557 101.155 121.431 101.121 121.302 101.121C120.782 101.121 120.338 101.657 120.172 102.403C119.424 102.329 118.835 101.574 118.835 100.654C118.835 99.6842 119.488 98.8983 120.294 98.8983H120.292Z" fill="#EB885E"/>
<path d="M122.311 102.102C122.332 102.291 122.195 102.463 122.004 102.483C121.814 102.504 121.642 102.367 121.622 102.176C121.497 101.075 121.187 100.105 120.769 99.3952C120.378 98.7333 119.903 98.3084 119.416 98.2391C119.226 98.2125 119.094 98.0367 119.122 97.8475C119.149 97.6584 119.325 97.5266 119.515 97.5545C120.22 97.6544 120.869 98.2018 121.366 99.0463C121.833 99.8374 122.176 100.902 122.312 102.1L122.311 102.102Z" fill="#EB885E"/>
<path d="M121.885 101.032C122.061 101.104 122.147 101.306 122.073 101.482C122.001 101.658 121.799 101.743 121.622 101.67C121.516 101.626 121.41 101.598 121.309 101.583C121.091 101.553 120.891 101.589 120.729 101.682C120.567 101.774 120.436 101.924 120.355 102.123C120.318 102.212 120.291 102.313 120.275 102.423C120.248 102.612 120.074 102.744 119.884 102.717C119.695 102.69 119.563 102.516 119.589 102.328C119.613 102.16 119.656 102.004 119.715 101.86C119.856 101.517 120.091 101.25 120.386 101.081C120.681 100.914 121.03 100.847 121.402 100.899C121.56 100.921 121.721 100.964 121.884 101.032H121.885Z" fill="#EB885E"/>
<path d="M135.043 98.0992C135.2 97.9207 135.474 97.9047 135.653 98.0619C135.831 98.2191 135.847 98.4921 135.69 98.6706C135.445 98.9476 135.126 99.1887 134.756 99.3912C133.842 99.892 132.586 100.173 131.366 100.154C130.123 100.136 128.902 99.8067 128.087 99.0848C127.835 98.861 127.622 98.6013 127.458 98.3056C127.343 98.0965 127.419 97.8341 127.628 97.7183C127.838 97.6037 128.101 97.6796 128.217 97.8887C128.333 98.0979 128.482 98.2817 128.66 98.4388C129.308 99.0129 130.323 99.2766 131.376 99.2926C132.451 99.3086 133.55 99.0662 134.339 98.6346C134.625 98.4775 134.867 98.2976 135.042 98.0992H135.043Z" fill="black"/>
<path d="M150.572 98.0992C150.73 97.9207 151.003 97.9047 151.182 98.0619C151.361 98.2191 151.377 98.4921 151.219 98.6706C150.974 98.9476 150.655 99.1887 150.285 99.3912C149.372 99.892 148.115 100.173 146.896 100.154C145.652 100.136 144.432 99.8067 143.617 99.0848C143.365 98.861 143.151 98.6013 142.987 98.3056C142.872 98.0965 142.948 97.8341 143.158 97.7183C143.367 97.6037 143.63 97.6796 143.746 97.8887C143.862 98.0979 144.012 98.2817 144.189 98.4388C144.837 99.0129 145.853 99.2766 146.905 99.2926C147.98 99.3086 149.08 99.0662 149.868 98.6346C150.155 98.4775 150.396 98.2976 150.571 98.0992H150.572Z" fill="black"/>
<path fill-rule="evenodd" clip-rule="evenodd" d="M149.317 102.02C148.082 102.323 147.292 103.432 147.555 104.498C147.816 105.563 149.03 106.183 150.266 105.88C151.501 105.578 152.291 104.468 152.028 103.403C151.766 102.337 150.552 101.718 149.317 102.02Z" fill="#FC6B58"/>
<path fill-rule="evenodd" clip-rule="evenodd" d="M159.882 59.283C158.748 63.5412 153.853 69.2085 147.621 67.8206C141.39 66.4328 137.789 57.995 141.969 51.2155C148.448 44.496 161.926 47.6487 159.882 59.283Z" fill="black"/>
<path d="M154.872 50.0569C154.601 50.0316 154.401 49.7919 154.426 49.5201C154.452 49.2498 154.692 49.05 154.964 49.0753C157.148 49.2817 159.316 51.1731 160.583 53.7117C161.238 55.0223 161.657 56.5114 161.717 58.0325C161.777 59.5642 161.474 61.1279 160.682 62.5743C159.214 65.2528 156.082 67.5158 150.494 68.3975C150.225 68.4388 149.973 68.2563 149.931 67.9873C149.889 67.7196 150.072 67.4678 150.342 67.4252C155.58 66.5994 158.484 64.5349 159.817 62.1015C160.519 60.8202 160.788 59.431 160.734 58.0671C160.679 56.6926 160.299 55.342 159.702 54.1486C158.581 51.9003 156.714 50.2301 154.873 50.0556L154.872 50.0569Z" fill="black"/>
<path fill-rule="evenodd" clip-rule="evenodd" d="M94.9829 196.666C88.8397 199.13 87.8698 207.555 78.2047 207.555C76.7867 195.88 85.7941 171.246 88.1419 167.199C109.441 130.484 103.391 157.447 103.755 173.436C101.377 181.303 98.2579 188.966 94.9842 196.666H94.9829Z" fill="#FA9D76"/>
<path fill-rule="evenodd" clip-rule="evenodd" d="M184.203 196.666C190.346 199.13 191.316 207.555 200.981 207.555C202.399 195.88 193.392 171.246 191.044 167.199C169.745 130.484 175.795 157.447 175.431 173.436C177.809 181.303 180.928 188.966 184.202 196.666H184.203Z" fill="#FA9D76"/>
<path fill-rule="evenodd" clip-rule="evenodd" d="M139.593 218.981C126.95 219.096 114.532 217.836 105.138 215.115C104.215 202.968 105.722 195.956 106.659 179.557C102.057 178.651 87.3951 175.816 84.7417 170.472C88.2662 157.893 95.5647 145.934 100.936 142.419C107.387 138.717 119.029 135.116 124.967 134.216C125.09 144.923 132.341 150.297 139.592 150.291C146.844 150.296 154.094 144.923 154.217 134.216C160.155 135.115 171.797 138.716 178.248 142.419C183.619 145.933 190.917 157.893 194.442 170.472C191.79 175.816 177.126 178.651 172.525 179.557C173.462 195.956 174.969 202.968 174.046 215.115C164.652 217.838 152.233 219.098 139.59 218.981H139.593Z" fill="#FC6B58"/>
<path fill-rule="evenodd" clip-rule="evenodd" d="M121.901 134.806C123.03 134.553 124.065 134.353 124.97 134.217C125.092 144.924 132.344 150.299 139.595 150.292C146.846 150.297 154.097 144.924 154.219 134.217C155.121 134.354 156.155 134.553 157.281 134.804C157.082 145.096 149.238 153.374 139.59 153.374C129.943 153.374 122.1 145.098 121.9 134.806H121.901Z" fill="#FF634D"/>
<path fill-rule="evenodd" clip-rule="evenodd" d="M78.2049 207.556C85.6062 214.621 107.318 215.943 127.71 217.048L129.172 205.371C106.665 202.633 105.567 200.382 94.9817 196.666C87.0749 196.573 79.0787 195.863 78.2036 207.556H78.2049Z" fill="#FA9D76"/>
<path fill-rule="evenodd" clip-rule="evenodd" d="M200.983 207.556C193.582 214.621 171.87 215.943 151.478 217.048L150.016 205.371C172.523 202.633 173.62 200.382 184.206 196.666C192.113 196.573 200.109 195.863 200.984 207.556H200.983Z" fill="#FA9D76"/>
<path fill-rule="evenodd" clip-rule="evenodd" d="M172.85 221.742C162.877 226.027 152.092 228.086 141.11 228.058C130.143 228.03 118.731 225.919 107.498 221.706C108.278 219.384 109.052 216.469 110.052 213.682C111.063 210.863 112.304 208.178 114.01 206.413C122.884 206.402 131.784 206.398 140.675 206.387C149.566 206.377 158.49 206.368 167.406 206.352C168.504 208.026 169.585 210.498 170.525 213.247C171.452 215.961 172.263 218.946 172.852 221.741L172.85 221.742Z" fill="#FFB291"/>
<path fill-rule="evenodd" clip-rule="evenodd" d="M100.534 176.852C113.682 176.82 126.84 176.789 140.015 176.757C153.207 176.725 166.418 176.693 179.646 176.663C182.2 176.656 184.059 178.654 183.766 181.07C182.751 189.404 181.771 197.426 180.83 205.154C179.921 212.603 179.045 219.796 178.199 226.742C177.965 228.66 175.926 230.207 173.686 230.207H104.083C101.844 230.207 99.9125 228.661 99.7671 226.751C99.2362 219.833 98.6866 212.669 98.1169 205.243C97.5273 197.551 96.9123 189.56 96.276 181.266C96.0919 178.86 97.9982 176.86 100.534 176.855V176.852Z" fill="#F7EBE4"/>
<path fill-rule="evenodd" clip-rule="evenodd" d="M101.208 178.659C114.118 178.629 127.037 178.599 139.983 178.569C152.928 178.538 165.9 178.509 178.89 178.478C180.693 178.474 181.998 179.879 181.797 181.592C180.852 189.63 179.94 197.385 179.06 204.86C178.212 212.079 177.393 219.046 176.6 225.787C176.439 227.157 175.004 228.278 173.41 228.278C161.87 228.274 150.361 228.275 138.862 228.276C127.377 228.276 115.901 228.279 104.447 228.28C102.853 228.28 101.468 227.165 101.368 225.8C100.881 219.083 100.378 212.143 99.8563 204.952C99.316 197.503 98.7571 189.785 98.1768 181.777C98.0527 180.07 99.4214 178.663 101.208 178.659Z" fill="#FAF3ED"/>
<path fill-rule="evenodd" clip-rule="evenodd" d="M179.398 201.991C178.908 206.157 178.428 210.238 177.959 214.238C177.497 218.158 177.045 222.014 176.601 225.788C176.439 227.159 175.004 228.279 173.41 228.279C163.91 228.275 154.425 228.275 144.948 228.276C135.471 228.276 126.01 228.278 116.557 228.279C122.742 221.694 131.478 215.851 142.098 211.293C152.976 206.625 165.702 203.341 179.399 201.99L179.398 201.991Z" fill="#F7EBE4"/>
<path fill-rule="evenodd" clip-rule="evenodd" d="M134.804 249.452C138.069 249.549 157.857 239.073 159.008 237.128C159.011 236.751 158.939 236.181 158.619 235.859C156.008 234.288 146.69 231.999 143.235 232.1C140.489 232.36 124.069 237.526 120.915 240.044C120.772 240.158 120.467 240.869 120.525 241.399C121.823 243.535 130.858 249.041 134.802 249.452H134.804Z" fill="#55766F"/>
<path fill-rule="evenodd" clip-rule="evenodd" d="M134.905 247.934C138.104 248.03 157.493 237.765 158.62 235.859C157.344 234.175 149.217 229.853 144.617 229.609C141.431 229.657 122.855 237.829 120.917 240.044C122.188 242.135 131.04 247.53 134.905 247.934Z" fill="#75948A"/>
<path fill-rule="evenodd" clip-rule="evenodd" d="M109.272 246.786V223.83C108.033 228.894 88.2115 228.902 87.1043 223.83V246.786C86.8762 254.66 109.041 254.688 109.272 246.786Z" fill="black"/>
<path fill-rule="evenodd" clip-rule="evenodd" d="M107.203 225.979C103.018 228.132 93.7505 228.182 89.3989 226.121C89.4723 234.499 89.5563 242.729 89.6511 250.793C93.996 253.427 102.77 253.338 106.953 250.51C107.047 242.491 107.131 234.309 107.203 225.979Z" fill="#1A1A1A"/>
<path fill-rule="evenodd" clip-rule="evenodd" d="M87.3086 223.628C87.3086 225.917 92.0671 227.774 98.189 227.774C104.311 227.774 109.272 225.917 109.272 223.628C106.363 217.885 87.5781 219.037 87.3086 223.628Z" fill="#F7EBE4"/>
<path fill-rule="evenodd" clip-rule="evenodd" d="M89.8564 226.312C91.8335 227.207 94.8017 227.774 98.1875 227.774C101.573 227.774 104.519 227.221 106.552 226.349C102.099 223.842 93.9813 224.119 89.8564 226.312Z" fill="#55766F"/>
<path fill-rule="evenodd" clip-rule="evenodd" d="M87.1045 223.809C87.1045 230.505 109.272 230.505 109.272 223.809C108.458 217.113 87.3086 217.947 87.1045 223.809ZM88.0357 223.629C88.0357 228.781 108.381 228.754 108.381 223.629C107.354 219.279 88.8934 218.82 88.0357 223.629Z" fill="#FFFCFA"/>
<path fill-rule="evenodd" clip-rule="evenodd" d="M102.422 227.145C106.183 218.062 105.295 214.244 109.752 212.197C109.804 212.213 109.997 212.324 110.018 212.349C111.632 217.147 108.34 218.852 104.428 227.055L102.422 227.145Z" fill="#172038"/>
<path d="M89.4298 229.588C92.1112 230.051 90.9253 233.708 89.0349 233.38C80.4491 231.361 83.0878 245.411 89.5752 244.011C91.5589 243.583 91.4789 247.213 89.4952 247.641C78.0772 250.105 74.8982 227.149 89.4311 229.588H89.4298Z" fill="black"/>
<path fill-rule="evenodd" clip-rule="evenodd" d="M102.084 227.219C105.869 218.075 105.199 214.236 109.753 212.197C111.368 216.995 108.075 218.7 104.164 226.903L102.084 227.219Z" fill="black"/>
<path fill-rule="evenodd" clip-rule="evenodd" d="M87.1045 223.809C87.1045 230.505 109.272 230.505 109.272 223.809C109.248 223.606 109.204 223.412 109.143 223.223C108.895 223.392 108.638 223.555 108.376 223.712C108.166 228.491 90.0741 228.737 88.1957 224.384C87.8209 224.199 87.4567 224.003 87.1058 223.798C87.1058 223.802 87.1058 223.805 87.1058 223.809H87.1045Z" fill="#FFFCFA"/>
<path fill-rule="evenodd" clip-rule="evenodd" d="M40.564 192.472C40.564 198.505 60.5384 198.505 60.5384 192.472C60.5157 192.289 60.4771 192.113 60.4224 191.944C60.1982 192.096 59.9675 192.242 59.7313 192.385C59.5419 196.691 43.24 196.914 41.5471 192.991C41.2096 192.825 40.8815 192.649 40.5653 192.462C40.5653 192.465 40.5653 192.469 40.5653 192.472H40.564Z" fill="#FFFCFA"/>
<path fill-rule="evenodd" clip-rule="evenodd" d="M64.4177 216.162C65.8718 211.702 64.7045 197.421 62.8182 192.639C60.7958 187.517 40.3384 187.517 38.316 192.639C36.4284 197.421 35.2625 211.702 36.7165 216.162C40.4425 221.943 60.3036 221.554 64.4191 216.162H64.4177Z" fill="#CFAE9D"/>
<path fill-rule="evenodd" clip-rule="evenodd" d="M61.0976 190.856C56.4845 188.112 44.649 188.112 40.0359 190.856C38.6218 197.072 37.78 212.226 38.7579 218.012C44.2461 221.275 56.8234 221.041 62.4063 217.828C63.3361 211.911 62.497 197.006 61.0976 190.856Z" fill="#D9B8A7"/>
<path fill-rule="evenodd" clip-rule="evenodd" d="M39.0259 192.306C39.0259 194.367 44.0592 196.038 50.5346 196.038C57.01 196.038 62.2594 194.367 62.2594 192.306C59.1818 187.136 39.3114 188.173 39.0259 192.306Z" fill="#CFAE9D"/>
<path fill-rule="evenodd" clip-rule="evenodd" d="M38.2773 192.472C38.2773 198.505 62.8235 198.505 62.8235 192.472C61.9217 186.438 38.5028 187.189 38.2773 192.472ZM39.3085 192.309C39.3085 196.951 61.8377 196.927 61.8377 192.309C60.6997 188.389 40.2584 187.975 39.3085 192.309Z" fill="#E3CBBF"/>
<path fill-rule="evenodd" clip-rule="evenodd" d="M45.0343 169.774C27.7212 145.022 33.3922 164.763 38.5429 181.186C26.7167 173.001 22.6452 171.154 22.6573 172.566C22.6933 176.464 36.0643 189.385 44.1979 196.058C47.709 196.313 53.7229 196.173 57.214 195.945C64.5232 190.15 74.4644 178.219 73.1424 177.018C72.3379 176.289 68.3532 177.2 59.2484 180.793C69.882 164.791 79.1268 149.5 54.7607 169.556C55.7306 154.466 55.217 148.365 54.0283 147.259C51.4737 144.884 45.8 165.6 45.0356 169.775L45.0343 169.774Z" fill="#668A82"/>
<path fill-rule="evenodd" clip-rule="evenodd" d="M59.0537 169.163C54.9329 166.471 56.6912 162.704 61.0961 161.656C63.3733 164.042 63.6495 169.331 59.0537 169.163Z" fill="#FF634D"/>
<path fill-rule="evenodd" clip-rule="evenodd" d="M59.6222 152.287C58.571 151.875 57.4437 151.576 56.2911 151.755C56.3138 150.75 55.9123 149.742 55.476 148.781C54.4768 149.387 53.2762 150.238 53.2442 151.199C52.8413 150.287 52.4745 149.327 50.3934 148.076C49.8157 149.685 49.8184 150.817 50.0945 151.972C48.7645 151.386 46.4927 152.247 45.875 153.087C45.923 154.122 46.9409 155.025 48.4684 155.492C47.6266 156.178 47.1143 157.109 46.9396 158.285C48.4177 159.391 51.9008 158.946 52.7573 157.411C53.3896 159.042 54.1193 160.36 56.7767 160.39C57.3357 159.075 57.0048 157.188 56.2764 156.004C57.6225 156.009 59.2874 154.239 59.6222 152.287Z" fill="#FF634D"/>
<path fill-rule="evenodd" clip-rule="evenodd" d="M30.2908 165.855C29.7625 165.47 29.3956 164.999 29.2275 164.496C29.6544 164.27 30.0626 164.142 30.4509 164.08C31.0925 164.893 32.0023 165.344 32.8561 165.575C32.069 165.552 31.1832 165.498 30.2908 165.855ZM31.0352 161.877C30.9284 161.469 30.8831 161.016 30.9231 160.516C32.0103 160.223 32.8868 160.283 33.6272 160.635C33.6005 161.568 33.994 162.45 34.7371 163.303C33.359 162.116 32.2998 161.643 31.0352 161.877Z" fill="#FF634D"/>
<path fill-rule="evenodd" clip-rule="evenodd" d="M34.737 163.302C33.5831 161.978 33.2696 160.581 34.074 159.03C37.8867 159.921 38.7111 164.838 37.3797 166.661C36.1538 168.34 31.518 170.088 29.0874 166.631C30.3614 165.441 31.7141 165.541 32.856 165.573C31.5233 165.215 30.0546 164.316 29.6824 162.346C31.6287 161.407 32.9014 161.719 34.7384 163.301L34.737 163.302Z" fill="#FC6B58"/>
<path fill-rule="evenodd" clip-rule="evenodd" d="M34.5956 179.275C35.5721 178.706 36.6393 178.24 37.8066 178.238C37.6305 177.25 37.8719 176.193 38.1561 175.175C39.2367 175.621 40.5534 176.279 40.7321 177.224C40.9896 176.261 41.2057 175.255 43.0707 173.702C43.8871 175.203 44.0592 176.323 43.9631 177.506C45.1878 176.724 47.565 177.229 48.3041 177.963C48.4148 178.992 47.5477 180.041 46.1096 180.737C47.0474 181.286 47.6958 182.129 48.0479 183.264C46.7579 184.582 43.2468 184.676 42.1649 183.289C41.79 184.997 41.2711 186.412 38.6497 186.847C37.896 185.633 37.9333 183.718 38.4709 182.437C37.1409 182.647 35.2239 181.153 34.5942 179.276L34.5956 179.275Z" fill="#FF634D"/>
<path fill-rule="evenodd" clip-rule="evenodd" d="M62.2261 180.348C62.7544 179.963 63.1212 179.493 63.2893 178.99C62.8624 178.763 62.4542 178.635 62.066 178.574C61.4244 179.387 60.5145 179.838 59.6608 180.069C60.4478 180.046 61.3336 179.991 62.2261 180.348ZM61.4817 176.371C61.5884 175.962 61.6338 175.509 61.5938 175.01C60.5065 174.717 59.6301 174.777 58.8897 175.128C58.9164 176.062 58.5228 176.944 57.7798 177.796C59.1578 176.61 60.2171 176.137 61.4817 176.371Z" fill="#FF634D"/>
<path fill-rule="evenodd" clip-rule="evenodd" d="M57.7783 177.796C58.9323 176.472 59.2458 175.075 58.4413 173.523C54.6287 174.414 53.8043 179.332 55.1356 181.155C56.3616 182.834 60.9974 184.582 63.428 181.125C62.154 179.935 60.8012 180.035 59.6593 180.067C60.992 179.709 62.4608 178.81 62.833 176.84C60.8866 175.901 59.614 176.213 57.777 177.795L57.7783 177.796Z" fill="#FC6B58"/>
<path d="M51.667 167.587C51.667 167.451 51.7764 167.342 51.9125 167.342C52.0485 167.342 52.1579 167.451 52.1579 167.587V168.116C52.1579 168.252 52.0485 168.361 51.9125 168.361C51.7764 168.361 51.667 168.252 51.667 168.116V167.587Z" fill="black"/>
<path d="M62.3139 172.073C62.398 171.967 62.5527 171.949 62.6594 172.033C62.7662 172.117 62.7835 172.272 62.6995 172.378L62.3713 172.794C62.2872 172.9 62.1325 172.918 62.0258 172.834C61.9191 172.75 61.9017 172.595 61.9858 172.489L62.3139 172.073Z" fill="black"/>
<path d="M54.5898 186.153C54.6738 186.046 54.8286 186.029 54.9353 186.113C55.042 186.197 55.0594 186.351 54.9753 186.458L54.6472 186.873C54.5631 186.98 54.4084 186.997 54.3017 186.913C54.1949 186.829 54.1776 186.675 54.2616 186.568L54.5898 186.153Z" fill="black"/>
<path d="M39.3942 170.596C39.3102 170.489 39.1554 170.472 39.0487 170.556C38.942 170.64 38.9247 170.795 39.0087 170.901L39.3369 171.317C39.4209 171.423 39.5757 171.441 39.6824 171.357C39.7891 171.273 39.8065 171.118 39.7224 171.012L39.3942 170.596Z" fill="black"/>
<path d="M50.8815 176.39C50.8815 176.254 50.7722 176.145 50.6361 176.145C50.5 176.145 50.3906 176.254 50.3906 176.39V176.919C50.3906 177.054 50.5 177.164 50.6361 177.164C50.7722 177.164 50.8815 177.054 50.8815 176.919V176.39Z" fill="black"/>
<path d="M31.9423 178.476C31.8943 178.349 31.7516 178.286 31.6248 178.334C31.4981 178.382 31.4354 178.525 31.4834 178.651L31.6729 179.145C31.7209 179.272 31.8636 179.335 31.9904 179.287C32.1171 179.239 32.1798 179.096 32.1318 178.97L31.9423 178.476Z" fill="black"/>
<path d="M68.249 179.666C68.297 179.54 68.4398 179.477 68.5665 179.525C68.6933 179.573 68.756 179.715 68.7079 179.842L68.5185 180.336C68.4705 180.463 68.3277 180.525 68.201 180.477C68.0743 180.429 68.0116 180.287 68.0596 180.16L68.249 179.666Z" fill="black"/>
<path d="M44.5396 186.632C44.5089 186.5 44.3755 186.419 44.2434 186.45C44.1114 186.48 44.03 186.614 44.0607 186.745L44.1821 187.261C44.2128 187.393 44.3462 187.474 44.4782 187.443C44.6103 187.413 44.6917 187.279 44.661 187.148L44.5396 186.632Z" fill="black"/>
<path d="M49.0308 161.633C49.0308 161.497 49.1402 161.388 49.2762 161.388C49.4123 161.388 49.5217 161.497 49.5217 161.633V162.162C49.5217 162.298 49.4123 162.407 49.2762 162.407C49.1402 162.407 49.0308 162.298 49.0308 162.162V161.633Z" fill="black"/>
<path d="M52.1846 189.228C52.1846 189.092 52.294 188.983 52.43 188.983C52.5661 188.983 52.6755 189.092 52.6755 189.228V189.757C52.6755 189.893 52.5661 190.002 52.43 190.002C52.294 190.002 52.1846 189.893 52.1846 189.757V189.228Z" fill="black"/>
<path d="M61.8633 185.095C61.99 185.046 62.1328 185.109 62.1808 185.235C62.2301 185.362 62.1674 185.504 62.0407 185.552L61.5458 185.743C61.4191 185.792 61.2763 185.729 61.2283 185.603C61.1789 185.476 61.2416 185.334 61.3684 185.286L61.862 185.095H61.8633Z" fill="black"/>
<path fill-rule="evenodd" clip-rule="evenodd" d="M38.2773 192.472C38.2773 198.505 62.8235 198.505 62.8235 192.472C62.7968 192.289 62.7475 192.113 62.6808 191.944C62.406 192.096 62.1218 192.242 61.8323 192.385C61.6002 196.691 41.5671 196.914 39.486 192.991C39.0711 192.825 38.6682 192.649 38.2787 192.462C38.2787 192.465 38.2787 192.469 38.2787 192.472H38.2773Z" fill="#E3CBBF"/>
</g>
<path fill-rule="evenodd" clip-rule="evenodd" d="M219.804 95.0145C220.103 97.5464 220.874 105.9 217.214 110.354C208.36 121.125 188.333 113.435 186.93 108.328C189.28 108.744 207.027 102.949 203.768 97.5438C201.603 93.9542 182.501 105.458 182.442 105.385C178.996 101.131 169.121 92.5424 170.379 86.1758C176.588 91.0027 196.052 89.3205 202.833 86.9683C206.627 85.6524 206.791 82.9805 203.605 82.7408C201.337 82.569 174.401 92.6823 171.603 83.2815C170.23 78.6704 170.729 72.4557 171.294 67.6088C171.526 65.6069 172.597 62.8565 174.455 62.8378C174.602 64.7372 185.819 72.0441 188.782 73.3014C191.607 74.5002 204.434 76.7764 202.646 71.4714C201.804 68.9727 195.346 67.4223 193.347 66.7657C186.855 64.6359 178.169 61.6058 177.278 58.1641C176.348 54.5693 182.185 47.4088 184.191 44.9408C185.573 48.0934 195.564 54.8676 196.304 53.8953C197.174 52.7525 187.997 43.6395 187.219 41.8907C188.427 39.6384 189.076 37.1197 189.903 34.5518C190.965 35.0819 202.409 37.8736 203.297 37.7271C207.662 42.5446 199.907 51.643 204.695 53.7102C208.949 55.5469 208.665 44.7876 207.97 42.1797C207.45 40.2271 206.692 38.4729 205.514 36.7268C207.769 35.5427 215.509 37.3195 216.736 39.8288C218.101 42.6179 217.084 46.3153 216.476 49.5705C215.349 55.6108 212.015 59.5307 211.391 67.4982C211.127 70.8827 212.885 72.7753 215.158 70.5377C221.208 64.5773 220.337 44.9794 218.446 42.4461C222.331 43.5835 229.82 50.5855 230.407 54.9369C231.25 61.1823 223.07 71.4181 219.432 77.0348C215.718 82.7687 219.939 82.0415 221.692 80.0596C223.841 77.6289 232.282 63.8448 231.455 56.041C239.959 63.3173 243.057 75.7815 241.261 85.4033C239.189 96.5049 225.834 98.3363 219.807 95.0158L219.804 95.0145Z" fill="#55766F"/>
<path fill-rule="evenodd" clip-rule="evenodd" d="M212.896 135.82C214.162 136.298 218.271 137.995 219.183 141.165C221.387 148.83 211.536 158.013 208.731 157.495C209.662 156.294 212.555 144.946 209.029 145.385C206.688 145.676 206.011 159.228 205.958 159.243C202.906 160.077 195.829 163.386 193.277 161.065C197.462 158.84 202.798 147.585 203.839 143.215C204.421 140.769 203.236 139.998 202.124 141.71C201.333 142.927 197.552 160.484 192.321 159.649C189.755 159.24 187.035 157.381 184.969 155.834C184.115 155.195 183.179 153.899 183.754 152.861C184.679 153.262 191.584 148.882 193.097 147.554C194.539 146.288 199.624 139.731 196.606 139.376C195.185 139.209 192.438 142.407 191.506 143.352C188.481 146.421 184.35 150.481 182.477 150.101C180.521 149.704 179.04 144.636 178.528 142.891C180.421 142.925 186.696 139.091 186.478 138.432C186.222 137.658 179.121 140.444 178.067 140.432C177.404 139.187 176.442 138.184 175.513 137.071C176.092 136.615 180.98 130.961 181.191 130.429C184.792 129.227 186.566 135.855 189.028 133.717C191.214 131.818 186.145 129.239 184.719 128.961C183.653 128.754 182.602 128.729 181.424 128.941C181.584 127.385 184.839 123.532 186.386 123.488C188.105 123.438 189.497 124.945 190.813 126.111C193.254 128.275 194.021 131.127 197.514 133.502C198.997 134.51 200.426 134.014 200.104 132.18C199.245 127.298 189.9 122.796 188.134 123.203C189.88 121.331 195.474 118.947 197.672 119.727C200.829 120.848 202.996 128.003 204.453 131.455C205.941 134.98 206.93 132.447 206.563 130.967C206.113 129.153 202.384 120.95 198.513 119.425C204.552 116.546 211.294 117.994 215.184 121.442C219.671 125.418 216.324 133.313 212.893 135.821L212.896 135.82Z" fill="#668A82"/>
<path fill-rule="evenodd" clip-rule="evenodd" d="M220.459 181.922C216.271 180.059 210.754 182.278 207.537 184.869C206.177 185.962 204.359 187.419 204.02 189.039C205.534 188.366 217.606 190.423 215.322 193.179C213.595 195.263 200.752 192.466 200.3 192.884C197.878 195.12 194.295 203.147 193.988 206.281C200.196 200.809 216.141 196.855 217.103 200.95C217.267 201.652 216.393 202.603 215.704 202.838C212.746 203.842 196.887 205.953 195.596 208.44C194.347 210.845 196.303 219.905 199.847 222.801C199.899 220.824 201.124 214.339 208.238 211.799C210.77 210.894 214.935 212.302 210.768 215.383C207.665 217.678 202.918 218.533 200.963 224.511C201.18 226.744 202.94 229.484 204.326 230.748C205.121 228.461 206.44 227.353 206.952 227.861C207.555 228.456 206.843 230.945 206.393 232.216C207.253 233.475 207.758 235.002 208.38 236.531C210.508 234.868 215.936 233.692 216.983 232.176C219.66 228.297 214.206 223.785 217.366 221.539C220.162 219.553 220.163 227.048 219.875 228.48C219.602 229.838 219.167 231.109 218.457 232.446C220.215 232.897 225.042 230.08 225.65 228.51C227.203 224.511 223.996 220.424 222.721 216.896C220.844 211.707 221.804 203.453 224.538 210.874C226.387 215.895 227.55 223.937 227.034 229.356C231.061 228.235 237.374 224.676 239.009 219.825C239.231 217.103 232.271 210.795 230.151 208.287C229.357 207.348 224.39 202.562 224.978 201.744C227.922 197.655 238.173 212.662 238.281 217.653C242.172 216.299 245.136 210.193 245.204 201.779C244.461 197.289 240.422 187.993 235.683 187.306C228.92 185.672 225.664 192.652 225.155 192.246C224.551 191.763 226.871 184.777 220.457 181.924L220.459 181.922ZM229.471 198.231C225.784 199.273 225.74 197.144 229.764 195.64C231.921 194.834 231.841 197.912 229.471 198.231Z" fill="#668A82"/>
<path fill-rule="evenodd" clip-rule="evenodd" d="M243.356 115.412C239.186 119.312 230.587 128.33 237.637 134.572C239.828 134.284 244.149 136.104 247.288 137.242C250.504 138.407 254.455 141.263 260.657 139.088C258.677 138.335 246.843 126.008 252.222 123.626C255.794 122.044 263.76 138.738 263.845 138.712C268.635 137.26 280.782 135.541 283.317 130.459C278.611 130.884 265.65 124.198 261.716 121.028C258.665 118.569 256.401 115.883 257.469 113.811C258.393 112.021 260.027 112.79 261.845 114.525C265.402 117.919 275.364 130.15 283.982 127.857C285.866 126.44 294.238 116.303 293.007 112.069C291.862 113.352 279.515 113.533 276.62 113.103C267.213 111.705 263.062 104.213 270.951 105.169C275.773 105.752 289.97 110.327 293.453 107.49C296.092 105.34 295.662 97.6651 295.512 95.0171C292.762 96.6382 290.576 96.5251 290.555 95.5036C289.85 93.4674 293.384 92.3933 294.919 91.4993C295.248 89.362 296.137 87.2829 296.921 85.0907C293.521 84.7821 287.501 80.7909 285.203 81.3664C280.479 82.5493 280.243 88.4043 278.772 90.2593C274.588 95.5399 270.833 89.1599 279.29 82.4405C280.743 81.2862 282.264 80.379 284.095 79.6662C282.886 77.5081 275.984 75.8079 274.037 76.859C269.015 79.5718 268.436 86.7755 266.44 91.7826C260.197 107.449 254.12 101.394 262.478 88.6964C265.611 83.9375 269.671 79.44 271.334 77.9529C268.574 77.2258 258.944 77.9463 257.097 79.8046C248.871 88.2615 253.612 106.801 249.091 106.402C244.369 105.986 251.914 85.3763 254.22 81.7969C251.449 82.1649 238.548 87.7343 238.361 90.7557C238.145 94.2384 238.003 99.1192 236.965 99.8584C236.302 100.331 234.522 98.7239 233.775 95.1555C230.366 98.7612 226.65 103.873 227.558 111.009C235.63 117.404 243.43 115.339 243.358 115.408L243.356 115.412ZM237.999 103.062C237.219 103.82 237.559 105.162 238.762 106.643C241.809 110.39 243.99 106.527 242.106 104.21C240.904 102.73 238.778 102.304 237.999 103.062Z" fill="#668A82"/>
<path fill-rule="evenodd" clip-rule="evenodd" d="M257.34 134.341C262.38 132.001 269.109 134.582 273.06 137.659C274.729 138.957 276.962 140.689 277.404 142.644C275.555 141.858 260.965 144.587 263.788 147.881C265.922 150.373 281.433 146.732 281.989 147.23C284.968 149.894 289.468 159.552 289.901 163.344C282.271 156.833 262.867 152.353 261.781 157.335C261.596 158.19 262.674 159.325 263.515 159.596C267.12 160.756 286.383 163.003 287.996 165.991C289.556 168.883 290.283 177.389 286.043 180.969C285.942 178.574 277.987 169.829 269.314 166.888C266.227 165.841 261.207 167.628 266.32 171.281C270.125 174 280.674 172.298 283.683 184.108C284.446 187.101 279.509 191.642 277.854 193.199C276.845 190.442 275.224 189.126 274.612 189.75C273.893 190.483 274.805 193.486 275.375 195.018C274.358 196.56 273.775 198.422 273.051 200.287C270.44 198.313 263.837 196.995 262.539 195.178C259.217 190.529 265.741 184.954 261.867 182.293C258.439 179.941 258.583 189.024 258.961 190.755C259.32 192.397 259.872 193.929 260.757 195.535C258.634 196.116 252.73 192.795 251.961 190.905C250 186.088 253.806 181.073 255.284 176.771C257.458 170.444 256.132 160.459 252.963 169.509C250.821 175.631 249.54 182.361 250.271 188.921C246.625 186.628 241.791 178.759 241.553 176.325C241.23 173.029 243.589 169.562 246.109 166.482C247.052 165.328 252.981 159.43 252.251 158.451C248.602 153.553 240.787 169.199 240.754 175.25C236.01 173.686 229.747 166.878 229.498 156.681C230.31 151.224 233.261 142.086 238.991 141.16C247.156 139.048 251.24 147.444 251.848 146.941C252.571 146.343 249.621 137.922 257.34 134.338V134.341ZM246.739 154.284C251.228 155.476 251.24 152.893 246.332 151.15C243.702 150.215 243.858 153.944 246.739 154.284Z" fill="#55766F"/>
</svg>
